<?xml version="1.0" standalone="no"?>
<!DOCTYPE svg PUBLIC "-//W3C//DTD SVG 20010904//EN"
 "http://www.w3.org/TR/2001/REC-SVG-20010904/DTD/svg10.dtd">
<svg version="1.0" xmlns="http://www.w3.org/2000/svg"
 width="800.000000pt" height="800.000000pt" viewBox="0 0 800.000000 800.000000"
 preserveAspectRatio="xMidYMid meet">
<metadata>
Created by potrace 1.14, written by Peter Selinger 2001-2017
</metadata>
<g transform="translate(0.000000,800.000000) scale(0.100000,-0.100000)"
fill="#000000" stroke="none">
<path d="M4195 7798 l0 -192 90 -58 c50 -32 96 -58 103 -58 6 0 12 -4 12 -10
0 -5 7 -10 15 -10 8 0 15 -4 15 -10 0 -5 5 -10 11 -10 6 0 23 -8 37 -19 15
-10 46 -29 68 -42 23 -13 94 -55 158 -94 l117 -70 -6 -58 c-3 -31 -10 -68 -15
-81 -5 -13 -7 -26 -5 -28 3 -2 -2 -41 -10 -86 -7 -44 -17 -100 -20 -124 -3
-24 -8 -54 -10 -68 -12 -57 -14 -69 -20 -121 -4 -30 -8 -56 -10 -59 -2 -3 -7
-33 -10 -65 -4 -33 -9 -63 -11 -66 -1 -3 -6 -28 -9 -55 -3 -27 -10 -71 -15
-99 -6 -27 -12 -66 -14 -85 -3 -19 -5 -35 -6 -35 -2 0 -4 -11 -14 -85 -3 -25
-8 -54 -10 -65 -2 -11 -7 -40 -11 -65 -3 -25 -8 -57 -11 -71 -2 -14 -6 -41 -9
-60 -2 -19 -7 -45 -9 -59 -6 -30 -27 -154 -32 -190 -1 -14 -5 -43 -8 -65 -4
-22 -9 -51 -12 -65 -3 -14 -8 -41 -10 -60 -2 -19 -6 -46 -9 -60 -3 -14 -7 -38
-9 -55 -3 -16 -8 -48 -11 -70 -4 -22 -8 -51 -10 -65 -4 -28 -10 -69 -30 -190
-8 -47 -17 -103 -20 -125 -3 -22 -8 -51 -11 -65 -8 -44 -11 -64 -18 -113 -4
-27 -9 -59 -12 -70 -2 -12 -6 -38 -9 -57 -19 -146 -25 -166 -58 -184 -18 -9
-47 -25 -64 -36 -67 -40 -304 -181 -473 -280 -96 -56 -195 -115 -220 -130 -97
-58 -120 -71 -120 -67 0 2 26 21 58 42 112 74 186 140 244 219 57 76 96 141
96 160 0 5 4 12 9 15 4 3 20 44 35 91 40 125 47 150 54 200 3 25 8 61 11 80 7
54 9 2904 1 2990 -3 41 -8 82 -10 90 -3 8 -8 31 -12 50 -12 49 -50 121 -78
146 -45 42 -130 47 -205 13 -65 -29 -331 -211 -383 -262 -25 -24 -56 -60 -70
-80 -14 -20 -28 -37 -32 -37 -5 0 -8 -4 -8 -9 0 -6 -13 -29 -29 -53 -64 -95
-129 -299 -146 -458 -6 -57 -6 -2945 -1 -3020 7 -79 33 -168 64 -220 33 -54
85 -83 149 -82 38 1 43 -1 33 -13 -7 -8 -16 -15 -20 -15 -6 0 -254 -145 -290
-170 -8 -6 -23 -13 -32 -16 -10 -4 -18 -10 -18 -15 0 -5 -5 -9 -10 -9 -6 0
-39 -17 -73 -39 -34 -21 -95 -58 -136 -82 -41 -24 -86 -51 -100 -59 -14 -9
-52 -31 -84 -50 -98 -58 -117 -69 -145 -87 -45 -28 -12 1 73 62 240 175 358
406 391 760 9 95 9 2883 0 2964 -17 153 -65 262 -129 291 -45 20 -115 16 -172
-9 -42 -18 -191 -113 -232 -146 -6 -5 -29 -21 -49 -35 -57 -38 -204 -187 -204
-207 0 -3 -6 -14 -14 -22 -28 -32 -95 -179 -115 -252 -24 -88 -29 -115 -37
-194 -3 -33 -7 -71 -10 -85 -5 -31 -5 -2932 1 -2980 11 -101 32 -168 68 -223
38 -56 93 -79 161 -66 23 4 42 6 43 5 2 -1 -16 -13 -40 -25 -23 -12 -91 -52
-152 -88 -105 -63 -166 -99 -370 -218 -49 -29 -142 -83 -205 -120 -63 -37
-152 -89 -198 -116 -45 -26 -82 -45 -81 -41 0 4 40 33 89 65 260 171 401 418
437 767 8 82 9 1688 1 1755 -6 47 -15 90 -18 90 -1 0 -3 11 -6 24 -13 70 -72
144 -129 160 -33 9 -95 6 -125 -6 -8 -4 -18 -7 -21 -7 -6 -1 -125 -79 -273
-179 -39 -26 -78 -52 -87 -57 -14 -8 -15 32 -15 398 1 224 5 412 9 419 10 15
95 73 108 73 5 0 9 3 9 8 0 4 18 18 40 32 22 14 40 28 40 32 0 5 4 7 8 5 5 -1
20 6 33 16 54 40 210 147 214 147 3 0 13 7 22 15 10 8 47 34 83 58 l65 44 3
222 2 221 -92 -63 c-51 -35 -154 -106 -228 -156 -74 -51 -172 -118 -218 -149
-46 -31 -91 -61 -100 -67 -9 -5 -19 -13 -22 -16 -3 -3 -60 -43 -128 -89 l-122
-84 0 -848 c0 -466 2 -848 5 -848 3 0 51 32 107 71 57 39 141 96 188 127 47
31 91 62 98 69 7 7 17 13 22 13 5 0 15 6 22 13 38 36 156 107 179 107 55 0 54
18 54 -849 1 -588 -2 -808 -11 -843 -16 -62 -47 -112 -92 -146 -21 -15 -39
-29 -42 -32 -3 -3 -32 -23 -65 -45 -33 -22 -62 -42 -65 -45 -17 -17 -61 -31
-78 -26 -29 10 -47 81 -43 176 2 60 1 105 -4 121 -4 10 -2 19 3 19 4 0 6 21 2
48 -3 26 -3 59 0 72 3 14 3 45 -1 70 -4 25 -4 46 0 48 4 1 5 24 1 51 -3 26 -3
60 1 74 4 15 3 29 -1 32 -5 3 -5 16 -1 28 5 12 5 33 1 47 -3 14 -4 36 0 50 3
14 3 45 -1 70 -4 25 -3 47 2 48 5 2 7 7 5 11 -5 8 -6 46 -6 165 0 72 -5 90
-19 68 -4 -7 -21 -20 -38 -30 -16 -9 -73 -46 -126 -82 l-97 -65 1 -610 c1
-482 4 -624 15 -677 23 -106 61 -176 112 -206 24 -13 113 -19 131 -8 6 4 11 4
11 -1 0 -4 -52 -39 -116 -77 -63 -38 -117 -73 -120 -78 -3 -5 -10 -6 -15 -3
-5 4 -9 0 -9 -8 0 -7 10 -19 22 -25 23 -11 92 -51 158 -90 19 -11 68 -39 107
-62 l73 -40 127 75 c71 41 135 79 143 85 23 14 172 103 195 115 11 6 72 43
135 82 64 38 120 72 125 74 25 10 210 125 213 131 2 5 8 8 13 8 5 0 68 35 140
77 71 43 142 85 157 94 215 126 535 316 562 334 19 13 54 33 76 46 141 80 230
134 235 142 3 5 8 7 10 6 2 -2 15 4 29 13 77 49 283 168 291 168 5 0 9 5 9 10
0 6 7 10 15 10 8 0 15 5 15 10 0 6 4 10 9 10 6 0 37 16 70 35 32 19 61 35 64
35 3 0 6 -28 7 -62 1 -35 3 -92 5 -128 1 -36 6 -141 9 -235 4 -93 9 -223 11
-288 2 -65 7 -122 9 -126 9 -13 -20 -33 -214 -147 -102 -60 -186 -112 -188
-116 -2 -5 -8 -8 -14 -8 -5 0 -71 -37 -147 -82 -75 -46 -145 -88 -156 -94 -23
-13 -13 -7 -327 -193 -134 -79 -315 -187 -403 -239 -88 -52 -217 -129 -287
-171 -70 -42 -141 -83 -158 -92 -22 -12 -27 -19 -18 -26 22 -17 347 -203 355
-203 4 0 46 23 93 51 47 28 92 54 100 59 8 5 51 31 95 57 44 26 88 53 97 58
10 6 131 78 270 160 138 83 258 151 265 153 7 2 13 8 13 13 0 5 4 9 9 9 5 0
56 29 115 65 58 36 108 65 110 65 3 0 41 23 85 50 44 28 85 50 91 50 5 0 10 3
10 8 0 4 14 13 30 20 17 8 36 19 43 26 6 6 23 17 37 24 14 6 32 16 40 22 8 5
92 55 185 110 94 55 175 104 182 110 7 5 15 10 18 10 3 0 22 11 43 24 40 25
573 343 607 361 25 14 94 55 120 73 11 7 28 15 38 18 9 4 17 10 17 15 0 5 5 9
10 9 6 0 29 11 51 26 40 25 75 46 159 93 25 14 47 29 48 33 2 4 8 8 13 8 5 0
39 19 76 42 38 22 82 49 98 58 17 10 64 38 105 62 41 25 160 95 263 157 l188
111 27 -20 c89 -66 216 -34 267 65 48 96 52 128 56 480 0 6 0 75 0 155 -1 80
0 152 0 160 0 8 0 224 0 480 0 256 0 472 0 480 0 28 -1 315 -1 345 -4 550 -8
784 -13 800 -3 11 -10 41 -16 67 -34 148 -105 281 -204 382 -76 77 -114 106
-187 145 -25 13 -53 31 -62 39 -10 8 -18 12 -18 9 0 -4 -25 9 -56 29 -71 45
-178 86 -226 86 -96 -1 -165 -81 -195 -226 -3 -17 -7 -620 -7 -1341 -2 -1259
1 -1387 27 -1490 44 -176 112 -302 221 -409 33 -32 50 -54 38 -47 -23 12 -16
16 -520 -285 -68 -41 -127 -74 -133 -74 -5 0 -9 -4 -9 -10 0 -5 -4 -10 -9 -10
-5 0 -98 -53 -208 -119 -406 -243 -468 -279 -471 -276 -2 2 -5 122 -7 267 -2
145 -5 341 -6 436 -2 142 0 175 12 183 8 5 122 73 254 151 132 78 242 145 245
148 3 3 22 14 43 24 20 11 37 22 38 25 0 3 2 15 4 26 3 11 7 43 10 70 7 67 13
111 19 143 5 25 14 98 21 162 2 14 5 44 9 68 3 23 9 61 12 85 3 23 7 53 9 67
3 14 7 50 10 80 3 30 7 66 10 80 2 14 7 45 10 70 3 25 8 56 10 70 2 14 7 48
10 75 3 28 7 64 9 80 3 17 7 53 11 80 3 28 8 57 10 65 2 8 7 43 10 78 4 35 8
73 11 85 3 12 7 40 9 62 2 22 7 63 11 90 4 28 8 59 9 70 3 23 11 80 21 145 3
25 7 56 9 70 3 34 15 128 21 165 3 16 9 63 15 105 5 41 12 98 16 125 4 28 7
60 7 73 1 12 5 22 9 22 5 0 6 4 3 9 -3 4 -1 35 4 67 8 56 16 117 26 194 2 19
6 51 9 70 7 42 13 86 22 160 4 30 7 147 7 259 l1 204 -160 99 c-88 54 -180
111 -205 126 -194 122 -312 192 -319 192 -5 0 -11 4 -13 8 -1 5 -43 32 -93 62
-49 30 -91 57 -93 62 -2 4 -11 8 -20 8 -16 0 -17 -19 -17 -192z m-528 -340
c17 -19 18 -76 19 -1472 2 -1543 3 -1497 -46 -1566 -19 -27 -107 -100 -135
-111 -14 -6 -129 -82 -135 -90 -12 -14 -47 -18 -62 -7 -9 7 -20 29 -25 48 -12
44 -10 2884 2 2925 4 17 18 46 31 66 25 40 101 109 120 109 7 0 14 4 16 9 3 8
101 74 143 96 32 17 52 15 72 -7z m1957 -696 c17 -9 33 -19 36 -22 3 -3 25
-16 50 -29 109 -59 140 -85 168 -141 l27 -55 0 -1296 c0 -1258 -1 -1298 -19
-1318 -14 -15 -26 -19 -45 -14 -24 6 -90 40 -101 53 -3 3 -21 14 -40 24 -98
54 -140 87 -167 133 l-28 48 -3 1275 c-2 701 0 1289 3 1307 11 63 49 74 119
35z m-3149 10 c35 -26 35 -21 35 -1491 0 -1626 6 -1507 -78 -1590 -67 -66
-247 -183 -275 -179 -49 7 -47 -39 -46 1490 0 788 2 1442 3 1453 13 90 58 143
206 242 124 83 137 89 155 75z"/>
<path d="M6534 6499 c-3 -5 -14 -9 -24 -9 -21 0 -62 -45 -85 -93 -43 -92 -44
-122 -45 -1175 0 -551 -1 -1006 -1 -1010 -1 -4 -1 -9 0 -12 1 -3 1 -138 2
-300 0 -162 5 -317 10 -345 5 -27 12 -66 15 -85 8 -52 41 -147 72 -210 39 -80
78 -135 143 -203 33 -33 57 -62 55 -64 -2 -2 -9 3 -16 12 -7 8 -16 15 -20 15
-4 0 -52 26 -106 59 l-98 59 -40 -18 c-23 -10 -86 -39 -141 -65 -55 -26 -147
-69 -205 -95 -90 -41 -228 -106 -360 -168 -19 -9 -37 -17 -40 -18 -3 0 -45
-20 -95 -44 -49 -24 -92 -44 -95 -45 -3 0 -30 -13 -60 -27 -69 -33 -236 -111
-317 -149 -34 -16 -67 -29 -73 -29 -5 0 -10 -4 -10 -10 0 -5 -7 -10 -15 -10
-8 0 -31 -9 -52 -19 -21 -11 -108 -52 -193 -91 -85 -40 -206 -96 -268 -126
-63 -30 -115 -54 -117 -54 -2 0 -54 -24 -116 -54 -63 -29 -136 -64 -164 -76
-47 -21 -139 -64 -285 -133 -165 -77 -269 -125 -305 -141 -22 -10 -47 -22 -55
-27 -8 -5 -22 -12 -30 -15 -8 -3 -28 -12 -45 -19 -372 -176 -613 -287 -622
-288 -7 0 -13 -4 -13 -9 0 -4 -9 -8 -20 -8 -11 0 -20 -4 -20 -10 0 -5 -5 -10
-12 -10 -6 0 -30 -9 -52 -19 -74 -35 -250 -117 -304 -141 -29 -13 -49 -27 -44
-32 20 -20 343 -206 354 -204 7 1 38 13 68 28 63 30 170 79 250 115 30 14 97
45 148 69 51 24 94 44 96 44 2 0 56 25 121 55 64 30 123 55 130 55 8 0 44 -18
80 -40 36 -22 67 -40 69 -40 2 0 62 -36 135 -80 72 -44 136 -80 141 -80 6 0
10 -3 10 -8 0 -4 13 -13 28 -19 15 -7 55 -31 89 -53 34 -22 64 -40 67 -40 2 0
41 -22 86 -50 45 -27 83 -50 86 -50 2 0 22 -12 44 -26 l40 -27 -22 -15 c-13
-9 -25 -19 -28 -22 -4 -5 -111 -87 -373 -284 -36 -28 -109 -84 -122 -94 -6 -5
-29 -22 -51 -38 -29 -21 -38 -33 -30 -40 9 -8 60 -38 186 -111 14 -8 43 -26
65 -39 22 -13 56 -32 76 -43 l35 -19 86 66 c47 37 136 105 198 152 61 47 121
93 133 102 77 60 377 289 487 373 73 55 137 105 144 110 6 6 52 40 101 77 50
38 97 74 105 80 8 7 66 52 130 101 63 48 126 96 140 107 14 11 120 92 235 181
116 88 220 169 233 180 12 10 26 19 31 19 5 0 11 4 13 8 2 4 41 37 88 72 47
35 87 67 90 70 3 3 21 17 40 30 19 13 37 27 40 30 3 3 41 32 85 65 44 33 84
66 88 73 4 6 14 12 22 12 7 0 15 4 17 8 2 5 102 84 223 176 121 92 229 175
240 184 11 9 47 37 79 62 33 25 76 57 95 72 20 15 53 39 74 53 20 14 37 29 37
34 0 4 -56 41 -125 80 -69 40 -125 74 -125 76 0 2 16 2 36 0 81 -7 139 29 175
110 45 103 46 127 44 1512 -1 719 -4 1315 -7 1323 -3 8 -9 38 -13 65 -10 55
-10 54 -17 75 -3 8 -11 33 -18 55 -34 110 -129 257 -212 330 -43 38 -105 85
-112 85 -2 0 -40 23 -83 50 -119 77 -195 111 -253 114 -28 2 -53 -1 -56 -5z
m219 -427 c17 -10 46 -26 62 -37 145 -92 167 -109 193 -153 l27 -47 0 -1291
c0 -1256 -1 -1292 -19 -1313 -24 -27 -52 -27 -96 1 -51 32 -63 40 -123 75 -92
54 -129 101 -142 181 -9 56 -9 2525 1 2554 15 52 42 60 97 30z m-291 -3344
c14 -10 31 -18 37 -18 6 0 11 -5 11 -11 0 -5 4 -8 9 -4 5 3 12 1 16 -5 3 -6
25 -20 48 -31 23 -12 44 -24 47 -28 3 -3 17 -12 33 -20 29 -16 35 -36 13 -44
-17 -7 -509 -360 -553 -397 -7 -5 -16 -10 -22 -10 -5 0 -11 -4 -13 -8 -1 -5
-25 -23 -53 -42 -27 -19 -56 -40 -63 -47 -7 -7 -17 -13 -21 -13 -5 0 -19 -10
-33 -22 -14 -13 -60 -48 -104 -78 -43 -30 -86 -60 -94 -67 -13 -10 -168 -122
-315 -228 -66 -47 -80 -57 -180 -129 -46 -33 -110 -79 -141 -101 -31 -22 -62
-45 -68 -50 -6 -6 -105 -78 -221 -160 -115 -82 -211 -153 -213 -157 -4 -9 -46
10 -99 45 -24 15 -47 27 -53 27 -5 0 -10 5 -10 10 0 6 -4 10 -9 10 -5 0 -69
36 -142 80 -73 44 -134 80 -136 80 -2 0 -22 12 -46 28 -23 15 -47 29 -52 32
-33 16 -255 152 -255 156 0 3 51 29 113 58 186 89 212 100 220 98 4 -1 7 2 7
8 0 5 5 10 10 10 6 0 46 16 88 36 79 38 201 95 307 144 33 15 94 43 135 63 41
19 109 50 150 70 41 19 129 60 194 91 65 31 125 56 132 56 8 0 14 3 14 8 0 4
15 13 33 21 17 8 61 28 97 44 36 17 67 31 70 32 5 1 88 40 235 110 39 18 106
49 150 70 100 46 169 79 318 149 65 31 120 56 121 56 2 0 54 24 117 54 62 30
120 51 128 48 9 -3 28 -14 43 -24z"/>
</g>
</svg>
